<svg xmlns="http://www.w3.org/2000/svg" viewBox="0 0 200.56 126.38"><defs><style>.cls-1{fill:#131c23;}</style></defs><title>anim-icon_1</title><g id="Layer_2" data-name="Layer 2"><g id="Layer_4" data-name="Layer 4"><path class="cls-1" d="M192.75,116.27v-8.71a2.7,2.7,0,0,1,2.7-2.7h3.32q1-3.55,1.8-7.21H167.21A7.21,7.21,0,0,1,160,90.45V35.93a7.21,7.21,0,0,1,7.21-7.21H191a102.44,102.44,0,0,0-5.43-9.14A2.69,2.69,0,0,1,183,21.52h-8.71a2.7,2.7,0,0,1-2.7-2.7V10.11a2.7,2.7,0,0,1,2.7-2.7h1.77A103.13,103.13,0,0,0,168.6,0H32a103.06,103.06,0,0,0-15.3,17.12v1.7a2.7,2.7,0,0,1-2.7,2.7H13.7Q11.47,25,9.53,28.73H42.19a7.21,7.21,0,0,1,7.21,7.21V90.45a7.21,7.21,0,0,1-7.21,7.21H0q1,5,2.56,9.74a2.69,2.69,0,0,1,2.68-2.53H14a2.7,2.7,0,0,1,2.7,2.7v8.71A2.7,2.7,0,0,1,14,119H7q1.73,3.79,3.77,7.41h179q2.18-3.9,4-8A2.68,2.68,0,0,1,192.75,116.27Zm-155-97.45a2.7,2.7,0,0,1-2.7,2.7H26.38a2.7,2.7,0,0,1-2.7-2.7V10.11a2.7,2.7,0,0,1,2.7-2.7h8.71a2.7,2.7,0,0,1,2.7,2.7Zm0,97.45a2.7,2.7,0,0,1-2.7,2.7H26.38a2.7,2.7,0,0,1-2.7-2.7v-8.71a2.7,2.7,0,0,1,2.7-2.7h8.71a2.7,2.7,0,0,1,2.7,2.7ZM150.48,10.11a2.7,2.7,0,0,1,2.7-2.7h8.71a2.7,2.7,0,0,1,2.7,2.7v8.71a2.7,2.7,0,0,1-2.7,2.7h-8.71a2.7,2.7,0,0,1-2.7-2.7Zm-21.13,0a2.7,2.7,0,0,1,2.7-2.7h8.71a2.7,2.7,0,0,1,2.7,2.7v8.71a2.7,2.7,0,0,1-2.7,2.7H132a2.7,2.7,0,0,1-2.7-2.7Zm-21.13,0a2.7,2.7,0,0,1,2.7-2.7h8.71a2.7,2.7,0,0,1,2.7,2.7v8.71a2.7,2.7,0,0,1-2.7,2.7h-8.71a2.7,2.7,0,0,1-2.7-2.7Zm-21.13,0a2.7,2.7,0,0,1,2.7-2.7h8.71a2.7,2.7,0,0,1,2.7,2.7v8.71a2.7,2.7,0,0,1-2.7,2.7H89.78a2.7,2.7,0,0,1-2.7-2.7Zm-21.13,0a2.7,2.7,0,0,1,2.7-2.7h8.71a2.7,2.7,0,0,1,2.7,2.7v8.71a2.7,2.7,0,0,1-2.7,2.7H68.64a2.7,2.7,0,0,1-2.7-2.7ZM47.51,21.52a2.7,2.7,0,0,1-2.7-2.7V10.11a2.7,2.7,0,0,1,2.7-2.7h8.71a2.7,2.7,0,0,1,2.7,2.7v8.71a2.7,2.7,0,0,1-2.7,2.7Zm11.41,94.75a2.7,2.7,0,0,1-2.7,2.7H47.51a2.7,2.7,0,0,1-2.7-2.7v-8.71a2.7,2.7,0,0,1,2.7-2.7h8.71a2.7,2.7,0,0,1,2.7,2.7Zm21.13,0a2.7,2.7,0,0,1-2.7,2.7H68.64a2.7,2.7,0,0,1-2.7-2.7v-8.71a2.7,2.7,0,0,1,2.7-2.7h8.71a2.7,2.7,0,0,1,2.7,2.7Zm21.13,0a2.7,2.7,0,0,1-2.7,2.7H89.78a2.7,2.7,0,0,1-2.7-2.7v-8.71a2.7,2.7,0,0,1,2.7-2.7h8.71a2.7,2.7,0,0,1,2.7,2.7Zm21.13,0a2.7,2.7,0,0,1-2.7,2.7h-8.71a2.7,2.7,0,0,1-2.7-2.7v-8.71a2.7,2.7,0,0,1,2.7-2.7h8.71a2.7,2.7,0,0,1,2.7,2.7Zm21.13,0a2.7,2.7,0,0,1-2.7,2.7H132a2.7,2.7,0,0,1-2.7-2.7v-8.71a2.7,2.7,0,0,1,2.7-2.7h8.71a2.7,2.7,0,0,1,2.7,2.7Zm1.22-18.62H64.73a7.21,7.21,0,0,1-7.21-7.21V35.93a7.21,7.21,0,0,1,7.21-7.21h79.94a7.21,7.21,0,0,1,7.21,7.21V90.45A7.21,7.21,0,0,1,144.67,97.66Zm19.92,18.62a2.7,2.7,0,0,1-2.7,2.7h-8.71a2.7,2.7,0,0,1-2.7-2.7v-8.71a2.7,2.7,0,0,1,2.7-2.7h8.71a2.7,2.7,0,0,1,2.7,2.7Zm21.13,0A2.7,2.7,0,0,1,183,119h-8.71a2.7,2.7,0,0,1-2.7-2.7v-8.71a2.7,2.7,0,0,1,2.7-2.7H183a2.7,2.7,0,0,1,2.7,2.7Z"/><path class="cls-1" d="M125.72,60.28,91.52,40.54a3.36,3.36,0,0,0-5,2.91V82.94a3.36,3.36,0,0,0,5,2.91l34.2-19.75A3.36,3.36,0,0,0,125.72,60.28Z"/></g></g></svg>