<svg xmlns="http://www.w3.org/2000/svg" viewBox="0 0 61.94 61.94"><defs><style>.cls-1{fill:#2d3335;}.cls-2{fill:none;}.cls-3{fill:#131c23;}</style></defs><title>DiagonalPattern1</title><g id="Layer_2" data-name="Layer 2"><g id="Layer_4" data-name="Layer 4"><rect class="cls-1" width="61.94" height="61.94"/><polygon class="cls-2" points="3.71 0 0 3.71 0 11.77 11.77 0 3.71 0"/><polygon class="cls-2" points="58.22 61.94 61.94 58.22 61.94 50.16 50.16 61.94 58.22 61.94"/><polygon class="cls-2" points="50.16 0 0 50.16 0 58.22 58.22 0 50.16 0"/><polygon class="cls-2" points="19.2 0 0 19.2 0 27.26 27.26 0 19.2 0"/><polygon class="cls-2" points="34.68 0 0 34.68 0 42.74 42.74 0 34.68 0"/><polygon class="cls-2" points="42.74 61.94 61.94 42.74 61.94 34.68 34.68 61.94 42.74 61.94"/><polygon class="cls-2" points="61.94 11.77 61.94 3.71 3.71 61.94 11.77 61.94 61.94 11.77"/><polygon class="cls-2" points="27.26 61.94 61.94 27.26 61.94 19.2 19.2 61.94 27.26 61.94"/><polygon class="cls-3" points="0 0 0 3.71 3.71 0 0 0"/><polygon class="cls-3" points="11.77 0 0 11.77 0 19.2 19.2 0 11.77 0"/><polygon class="cls-3" points="27.26 0 0 27.26 0 34.68 34.68 0 27.26 0"/><polygon class="cls-3" points="42.74 0 0 42.74 0 50.16 50.16 0 42.74 0"/><polygon class="cls-3" points="61.94 0 58.22 0 0 58.22 0 61.94 3.71 61.94 61.94 3.71 61.94 0"/><polygon class="cls-3" points="19.2 61.94 61.94 19.2 61.94 11.77 11.77 61.94 19.2 61.94"/><polygon class="cls-3" points="34.68 61.94 61.94 34.68 61.94 27.26 27.26 61.94 34.68 61.94"/><polygon class="cls-3" points="50.16 61.94 61.94 50.16 61.94 42.74 42.74 61.94 50.16 61.94"/><polygon class="cls-3" points="61.94 61.94 61.94 58.22 58.22 61.94 61.94 61.94"/></g></g></svg>