<svg xmlns="http://www.w3.org/2000/svg" viewBox="0 0 143.15 122.89"><defs><style>.cls-1{fill:#131c23;}</style></defs><title>game-icon_1</title><g id="Layer_2" data-name="Layer 2"><g id="Layer_4" data-name="Layer 4"><polygon class="cls-1" points="94.36 99.7 94.36 122.89 143.15 94.72 143.15 71.53 94.36 99.7"/><polygon class="cls-1" points="90.29 99.7 41.5 71.53 41.5 94.72 90.29 122.89 90.29 99.7"/><circle class="cls-1" cx="92.33" cy="14.71" r="14.71"/><path class="cls-1" d="M92.33,33.33a19.65,19.65,0,0,1-5.49-.78V68c0,1.75,2.46,3.17,5.49,3.17s5.49-1.42,5.49-3.17V32.55A19.65,19.65,0,0,1,92.33,33.33Z"/><path class="cls-1" d="M101,44.88V61.42c3.45,1.51,5.69,3.9,5.69,6.6,0,4.58-6.43,8.29-14.37,8.29S78,72.61,78,68c0-2.7,2.24-5.09,5.69-6.6V44.88L43.56,68,92.33,96.18,141.09,68ZM62.78,71.31c-3.14,0-5.69-1.47-5.69-3.29s2.55-3.29,5.69-3.29,5.69,1.47,5.69,3.29S65.92,71.31,62.78,71.31Z"/><path class="cls-1" d="M37.12,88.55H17a8.88,8.88,0,0,1,0-17.76h6.59a3.88,3.88,0,0,0,0-7.76H0V58H23.59a8.88,8.88,0,0,1,0,17.76H17a3.88,3.88,0,0,0,0,7.76H37.12Z"/></g></g></svg>