<svg xmlns="http://www.w3.org/2000/svg" viewBox="0 0 147.4 146.63"><defs><style>.cls-1{fill:#131c23;}</style></defs><title>graphic-icon_1</title><g id="Layer_2" data-name="Layer 2"><g id="Layer_4" data-name="Layer 4"><path class="cls-1" d="M135.06,51.72a12.35,12.35,0,0,0-12,9.55H87.35V50.41H60V61.27H24.35a12.34,12.34,0,1,0,0,5.58H60V77.72h2.78l-13.69,25.6,9.45,26.54,30.47,0,9.38-26.56L84.71,77.72h2.64V66.85H123a12.33,12.33,0,1,0,12-15.13ZM12.34,69.24a5.17,5.17,0,1,1,5.17-5.17A5.18,5.18,0,0,1,12.34,69.24Zm69.72,3.18h-.19L76.21,61.9l0,41.32a7,7,0,1,1-4.93,0l0-25.5h0v-5.3h0V61.9L65.66,72.42h-.31V55.71H82.06Zm53-3.18a5.17,5.17,0,1,1,5.17-5.17A5.18,5.18,0,0,1,135.06,69.24Z"/><rect class="cls-1" x="59.18" y="133.6" width="30.32" height="3.66" transform="translate(-0.17 0.09) rotate(-0.07)"/><rect class="cls-1" x="59.19" y="140.82" width="30.32" height="5.8" transform="translate(-0.18 0.09) rotate(-0.07)"/><path class="cls-1" d="M70.14,47.67l5.64-1.45a67.36,67.36,0,0,0-4.72-12.82L65.83,36A61.51,61.51,0,0,1,70.14,47.67Z"/><path class="cls-1" d="M67.75,27.42a68,68,0,0,0-8.34-10.82l-4.23,4a62.12,62.12,0,0,1,7.62,9.89Z"/><path class="cls-1" d="M37.15,1c-.81-.35-1.64-.67-2.46-1q-4.08,1.58-8,3.49a61.49,61.49,0,0,1,8.12,2.85Z"/><path class="cls-1" d="M54.46,11.88A67.92,67.92,0,0,0,43.28,4L40.44,9.11a62.07,62.07,0,0,1,10.22,7.17Z"/></g></g></svg>